<?xml version="1.0" standalone="no"?>
<!DOCTYPE svg PUBLIC "-//W3C//DTD SVG 20010904//EN"
 "http://www.w3.org/TR/2001/REC-SVG-20010904/DTD/svg10.dtd">
<svg version="1.0" xmlns="http://www.w3.org/2000/svg"
 width="310.000000pt" height="310.000000pt" viewBox="0 0 310.000000 310.000000"
 preserveAspectRatio="xMidYMid meet">
<metadata>
Created by potrace 1.11, written by Peter Selinger 2001-2013
</metadata>
<g transform="translate(0.000000,310.000000) scale(0.100000,-0.100000)"
fill="#000000" stroke="none">
<path d="M233 3082 c-63 -25 -128 -75 -167 -129 -71 -96 -67 0 -64 -1418 l3
-1280 25 -50 c31 -64 111 -144 175 -175 l50 -25 1295 0 1295 0 50 25 c64 31
144 111 175 175 l25 50 0 1295 0 1295 -25 50 c-31 64 -111 144 -175 175 l-50
25 -1285 2 c-1189 2 -1288 1 -1327 -15z m1412 -727 c207 -54 409 -303 490
-605 32 -123 49 -321 35 -421 -43 -304 -263 -535 -562 -590 -55 -10 -76 -9
-142 5 -283 63 -499 302 -536 592 -12 94 3 292 29 396 81 313 279 565 491 622
72 19 123 19 195 1z"/>
</g>
</svg>
