<?xml version="1.0" encoding="UTF-8"?>
<svg width="261px" height="261px" viewBox="0 0 261 261" version="1.1" xmlns="http://www.w3.org/2000/svg" xmlns:xlink="http://www.w3.org/1999/xlink">
    <!-- Generator: Sketch 49.1 (51147) - http://www.bohemiancoding.com/sketch -->
    <title>Group 3</title>
    <desc>Created with Sketch.</desc>
    <defs></defs>
    <g id="Pages" stroke="none" stroke-width="1" fill="none" fill-rule="evenodd">
        <g id="Home" transform="translate(-990.000000, -2259.000000)">
            <g id="Group-3" transform="translate(990.000000, 2259.000000)">
                <circle id="Oval-Copy-2" fill="#FFFFFF" cx="130.5" cy="130.5" r="130.5"></circle>
                <g id="Page-1" transform="translate(71.000000, 53.000000)">
                    <path d="M119.097758,146.545407 C119.097758,151.166508 92.4366593,154.911466 59.5500659,154.911466 C26.6608352,154.911466 0.00105494505,151.166508 0.00105494505,146.545407 C0.00105494505,141.924305 26.6608352,138.178034 59.5500659,138.178034 C92.4366593,138.178034 119.097758,141.924305 119.097758,146.545407" id="Fill-1" fill="#BFEFDD"></path>
                    <path d="M2.33274725,45.139678 C2.15604396,45.139678 1.97538462,45.1147203 1.79868132,45.0608644 C0.821538462,44.7692542 0.269010989,43.7433644 0.563076923,42.7687034 C8.17714286,17.5864576 31.923956,0.000525423729 58.3147253,0.000525423729 C71.9736264,0.000525423729 85.3608791,4.69387288 96.0131868,13.2175593 C96.8096703,13.8546356 96.9349451,15.0118814 96.2967033,15.8039576 C95.6584615,16.5973475 94.498022,16.7234492 93.7002198,16.0863729 C83.7006593,8.08548305 71.1349451,3.67980508 58.3147253,3.67980508 C33.5406593,3.67980508 11.247033,20.1899322 4.09978022,43.8313729 C3.85846154,44.6260763 3.12659341,45.139678 2.33274725,45.139678" id="Fill-3" fill="#00BE78"></path>
                    <path d="M35.1207033,115.348373 C34.8754286,115.348373 34.6261978,115.299771 34.3861978,115.197314 C23.2974066,110.402822 13.9861978,102.487314 7.45740659,92.3059153 C6.90883516,91.4494746 7.16202198,90.3119322 8.02048352,89.764178 C8.88026374,89.2203644 10.0222418,89.4699407 10.5721319,90.3250678 C16.7013626,99.8864661 25.4442198,107.321212 35.8578462,111.820153 C36.7927912,112.226042 37.2226813,113.308415 36.8165275,114.241042 C36.5145495,114.935915 35.8341099,115.348373 35.1207033,115.348373" id="Fill-5" fill="#00BE78"></path>
                    <path d="M58.3148571,120.129335 C54.7570549,120.129335 51.190022,119.816708 47.713978,119.199335 C46.7104615,119.020691 46.0405714,118.065733 46.2199121,117.064801 C46.3992527,116.063869 47.3632088,115.399208 48.3627692,115.576538 C51.6251868,116.157131 54.9733187,116.450055 58.3148571,116.450055 C65.0071648,116.450055 71.5596923,115.292809 77.7904615,113.011157 C78.7399121,112.660436 79.808044,113.149081 80.1601319,114.102725 C80.5122198,115.056369 80.0216703,116.113784 79.0643077,116.464504 C72.4247473,118.897216 65.4436484,120.129335 58.3148571,120.129335" id="Fill-7" fill="#00BE78"></path>
                    <path d="M90.6509011,110.387979 C90.0548571,110.387979 89.4693626,110.100309 89.1133187,109.568318 C88.5462857,108.722386 88.7770549,107.580903 89.6262857,107.018699 C96.6785934,102.334547 102.693099,96.0255212 107.018374,88.7733602 C107.539253,87.8998432 108.672,87.6148008 109.550242,88.1323432 C110.425846,88.6511992 110.714637,89.7808602 110.193758,90.6543771 C105.587604,98.3741653 99.1840879,105.093021 91.6728791,110.079292 C91.359033,110.288148 91.0043077,110.387979 90.6509011,110.387979" id="Fill-9" fill="#00BE78"></path>
                    <path d="M115.35811,74.6460297 C115.223604,74.6460297 115.089099,74.6315805 114.951956,74.6013686 C113.95767,74.3793771 113.331297,73.3955212 113.555473,72.4037839 C114.460088,68.3790381 114.920308,64.2268771 114.920308,60.0642076 C114.920308,52.5572161 113.455253,45.2603941 110.566022,38.3799703 C110.171736,37.4434025 110.616132,36.3649703 111.55767,35.9735297 C112.496571,35.5807754 113.580527,36.0247585 113.973495,36.9613263 C117.052615,44.2936144 118.613934,52.0672585 118.613934,60.0642076 C118.613934,64.4974703 118.124703,68.9202246 117.15811,73.2089958 C116.966901,74.0654364 116.204703,74.6460297 115.35811,74.6460297" id="Fill-11" fill="#00BE78"></path>
                    <path d="M58.3843516,103.904775 C34.1166593,103.904775 14.3733626,84.2381653 14.3733626,60.0647331 C14.3733626,48.9953686 18.5417143,38.4199025 26.1109451,30.2850297 C26.8072088,29.5402415 27.9742418,29.4968941 28.7219341,30.1865127 C29.4696264,30.8774449 29.5131429,32.0412585 28.8208352,32.7860466 C21.8858901,40.2378686 18.066989,49.9253686 18.066989,60.0647331 C18.066989,82.2087161 36.154022,100.225496 58.3843516,100.225496 C71.2454505,100.225496 83.4511648,94.0110466 91.0335824,83.6024025 C91.6335824,82.7801144 92.7887473,82.5988432 93.6129231,83.192572 C94.4384176,83.7902415 94.6217143,84.9396059 94.023033,85.7618941 C85.746989,97.1228686 72.423033,103.904775 58.3843516,103.904775" id="Fill-13" fill="#00BE78"></path>
                    <path d="M98.2565275,75.5786568 C98.0574066,75.5786568 97.853011,75.5458178 97.6538901,75.4775127 C96.6899341,75.1451822 96.1782857,74.0982754 96.5105934,73.1380636 C97.9650989,68.9386144 98.7035604,64.5421314 98.7035604,60.0642076 C98.7035604,59.0488263 99.5303736,58.2252246 100.549714,58.2252246 C101.570374,58.2252246 102.397187,59.0488263 102.397187,60.0642076 C102.397187,64.9506483 101.590154,69.7530212 100.002462,74.3386568 C99.7387253,75.1005212 99.0226813,75.5786568 98.2565275,75.5786568" id="Fill-15" fill="#00BE78"></path>
                    <path d="M88.4886593,59.9775127 C88.4886593,76.7411568 74.8455824,90.329928 58.0178901,90.329928 C41.1875604,90.329928 27.5458022,76.7411568 27.5458022,59.9775127 C27.5458022,43.2138686 41.1875604,29.6250975 58.0178901,29.6250975 C74.8455824,29.6250975 88.4886593,43.2138686 88.4886593,59.9775127" id="Fill-17" fill="#BFEFDD"></path>
                    <path d="M38.496,24.8769746 C37.837978,24.8769746 37.2023736,24.5262542 36.8687473,23.9088814 C36.3847912,23.0130339 36.7223736,21.897822 37.6203956,21.4170593 C43.9672088,18.0201949 51.1487473,16.2245593 58.3843516,16.2245593 C63.7434725,16.2245593 68.9825934,17.1782034 73.9566593,19.0565932 C74.9087473,19.417822 75.3900659,20.479178 75.0274286,21.4301949 C74.6647912,22.3798983 73.5992967,22.8527797 72.6445714,22.4968051 C68.0911648,20.7760424 63.2938022,19.903839 58.3843516,19.903839 C51.7566593,19.903839 45.1803956,21.5484153 39.368967,24.6576102 C39.0907253,24.8060424 38.7913846,24.8769746 38.496,24.8769746" id="Fill-19" fill="#00BE78"></path>
                    <path d="M58.3843516,90.9821102 C47.3351209,90.9821102 37.0335824,85.0566441 31.4964396,75.5188898 C30.9874286,74.6388051 31.2894066,73.5130847 32.1716044,73.0034237 C33.0538022,72.5003305 34.1839121,72.7971949 34.6955604,73.6759661 C39.572044,82.0827458 48.6498462,87.3028305 58.3843516,87.3028305 C73.4621538,87.3028305 85.7285275,75.0827881 85.7285275,60.0648644 C85.7285275,45.0456271 73.4621538,32.8268983 58.3843516,32.8268983 C43.8274286,32.8268983 31.8327033,44.1589746 31.0770989,58.6265169 C31.0243516,59.6418983 30.1527033,60.4011356 29.1373187,60.3682966 C28.1192967,60.3157542 27.336,59.4514322 27.3887473,58.4373644 C28.2458901,42.0126186 41.8612747,29.1476186 58.3843516,29.1476186 C75.4995165,29.1476186 89.4221538,43.016178 89.4221538,60.0648644 C89.4221538,77.1122373 75.4995165,90.9821102 58.3843516,90.9821102" id="Fill-21" fill="#00BE78"></path>
                    <path d="M79.6842198,25.8249703 C79.434989,25.8249703 79.1976264,25.772428 78.9721319,25.6804788 C78.747956,25.5885297 78.5514725,25.4571737 78.380044,25.286411 C78.1941099,25.1156483 78.0635604,24.9186144 77.9699341,24.6953093 C77.8789451,24.4720042 77.8393846,24.2355636 77.8393846,23.9859873 C77.8393846,23.8677669 77.8512527,23.7495466 77.8789451,23.6313263 C77.8921319,23.5131059 77.9316923,23.3948856 77.9699341,23.2766653 C78.0226813,23.1715805 78.0754286,23.0664958 78.1413626,22.961411 C78.2086154,22.8694619 78.2864176,22.7643771 78.380044,22.6855636 C79.0644396,22.0025127 80.3053187,22.0025127 80.9897143,22.6855636 C81.0701538,22.7643771 81.147956,22.8694619 81.2138901,22.961411 C81.2798242,23.0664958 81.3470769,23.1715805 81.3853187,23.2766653 C81.4380659,23.3948856 81.4657582,23.5131059 81.4908132,23.6313263 C81.5185055,23.7495466 81.5303736,23.8677669 81.5303736,23.9859873 C81.5303736,24.2355636 81.4776264,24.4720042 81.3853187,24.6953093 C81.2943297,24.9186144 81.1611429,25.1156483 80.9897143,25.286411 C80.8182857,25.4571737 80.6072967,25.5885297 80.3831209,25.6804788 C80.1721319,25.772428 79.9229011,25.8249703 79.6842198,25.8249703" id="Fill-23" fill="#00BE78"></path>
                    <path d="M30.0894066,68.6079915 C29.5883077,68.6079915 29.1267692,68.4109576 28.7839121,68.0694322 C28.4278681,67.7134576 28.2432527,67.2550254 28.2432527,66.7690085 C28.2432527,66.6507881 28.2551209,66.5325678 28.2696264,66.4143475 C28.296,66.2948136 28.3355604,66.1765932 28.3751209,66.0596864 C28.4278681,65.9532881 28.4806154,65.8482034 28.5465495,65.7431186 C28.6124835,65.6524831 28.6902857,65.5473983 28.7839121,65.4672712 C29.4696264,64.7855339 30.7091868,64.7855339 31.3949011,65.4672712 C31.474022,65.5473983 31.5518242,65.6524831 31.6190769,65.7431186 C31.685011,65.8482034 31.7509451,65.9532881 31.7905055,66.0596864 C31.8287473,66.1765932 31.8696264,66.2948136 31.896,66.4143475 C31.9223736,66.5325678 31.9342418,66.6507881 31.9342418,66.7690085 C31.9342418,67.2550254 31.7377582,67.7134576 31.3949011,68.0694322 C31.0388571,68.4109576 30.5773187,68.6079915 30.0894066,68.6079915" id="Fill-25" fill="#00BE78"></path>
                </g>
            </g>
        </g>
    </g>
</svg>