<svg height="261" viewBox="0 0 261 261" width="261" xmlns="http://www.w3.org/2000/svg" xmlns:xlink="http://www.w3.org/1999/xlink"><mask id="a" fill="#fff"><path d="m0 .57388034h59.9221639v59.56667346h-59.9221639z" fill="none"/></mask><g fill="none" fill-rule="evenodd"><circle cx="130.5" cy="130.5" fill="#fff" r="130.5"/><g transform="translate(60 55)"><path d="m127.377515 95.3614068c0 8.4686842-6.905046 15.3315552-15.424139 15.3315552s-15.424139-6.862871-15.424139-15.3315552c0-8.4686837 6.905046-15.3328718 15.424139-15.3328718s15.424139 6.8641881 15.424139 15.3328718" fill="#bfefdd"/><path d="m36.2931352 30.9697949c0 3.564376-2.9063426 6.4535213-6.4919352 6.4535213s-6.4932593-2.8891453-6.4932593-6.4535213c0-3.5643761 2.9076667-6.4535214 6.4932593-6.4535214s6.4919352 2.8891453 6.4919352 6.4535214" fill="#bfefdd"/><g fill="#00be78"><path d="m98.8671546 113.656344c.3270463 0 .6554167.092136.9414167.279042 2.3343427 1.512359 4.8765647 2.561402 7.5551667 3.116855.70838.146103 1.249926.719983 1.353204 1.433385l.595833 4.104034 5.25525-.014479.572-4.08429c.099306-.717351.640852-1.29518 1.354528-1.442599 2.678602-.556769 5.218176-1.605812 7.547222-3.118171.606426-.393555 1.395574-.369863 1.975519.06318l3.347259 2.487692 3.707407-3.702581-2.5025-3.289282c-.438268-.576513-.46475-1.367573-.066204-1.973043 1.525334-2.313949 2.585917-4.843761 3.148649-7.515726.14962-.7041884.724268-1.2398978 1.441916-1.3438807l4.10463-.5883589-.014565-5.2254701-4.06888-.560718c-.72162-.0987179-1.301564-.6396923-1.449861-1.3491453-.558759-2.6772307-1.618018-5.2149401-3.149972-7.5420512-.395898-.6015214-.370741-1.3873163.062232-1.9625129l2.477342-3.2919145-3.727268-3.6854701-3.270463 2.4587351c-.581269.4369914-1.375713.462-1.984787.0671282-2.336991-1.5242052-4.892454-2.5824616-7.592241-3.1418633-.711028-.1474188-1.252574-.7226154-1.354528-1.4373333l-.575972-4.042171h-5.25525l-.575972 4.042171c-.101954.7147179-.6435 1.2899145-1.354528 1.4373333-2.701111.5594017-5.256574 1.6176581-7.596213 3.1431795-.6064259.3975043-1.3995463.3724957-1.9808148-.0631795l-3.2969445-2.464-3.7166759 3.6946838 2.4852871 3.2853333c.4356203.5751966.4621018 1.3623077.0648796 1.9664615-1.5293056 2.3297436-2.5885648 4.867453-3.146 7.5407351-.1469722.7068205-.7255926 1.2477949-1.4458889 1.3491453l-4.0900648.5738803v5.2267864l4.1072778.5765128c.7176481.1013504 1.2949444.6396923 1.4445648 1.3451962.5653796 2.67065 1.6246389 5.199146 3.1499722 7.511778.3985463.604154.3720648 1.391265-.0635556 1.969094l-2.5064722 3.312975 3.7166759 3.693367 3.341963-2.49559c.3058611-.229025.6699815-.344854 1.0354259-.344854zm8.9533894 12.364752c-.856676 0-1.583593-.62653-1.705408-1.47024l-.642176-4.419931c-2.276083-.585727-4.459481-1.487351-6.5117961-2.687761l-3.5961852 2.686445c-.6871944.515965-1.6484722.446205-2.2548981-.157949l-5.8325463-5.798034c-.606426-.602838-.6752778-1.558428-.1588889-2.241556l2.6958148-3.56306c-1.2088796-2.036222-2.1198426-4.205384-2.7156759-6.475897l-4.4224074-.621265c-.8500556-.119778-1.4816389-.84371-1.4816389-1.6966326v-8.2014872c0-.8529231.6315833-1.5768547 1.4816389-1.6966325l4.4025462-.6186325c.5918612-2.2757777 1.5015-4.4541538 2.715676-6.5048547l-2.6759537-3.5380512c-.5163889-.6831282-.4475371-1.6374017.1588889-2.2415556l5.8325463-5.7980342c.60775-.6054701 1.5690277-.6739145 2.2548981-.1579487l3.5485185 2.6535385c2.0615838-1.2135727 4.2595468-2.1230941 6.5568148-2.7154017l.620991-4.3541197c.120491-.8450256.847407-1.474188 1.706731-1.474188h8.248982c.858 0 1.584916.6291624 1.705407 1.474188l.620991 4.3541197c2.29462.5923076 4.489935 1.5005128 6.550194 2.7101367l3.519389-2.645641c.684547-.5159658 1.645824-.4514701 2.254898.1513675l5.848436 5.7835556c.609074.6015213.67925 1.5571111.165509 2.2402393l-2.669334 3.5472649c1.2155 2.0493846 2.126463 4.229077 2.719649 6.5074872l4.378713.6041539c.850055.1171453 1.484287.8371282 1.486935 1.6913675l.021185 8.2001709c.002648.8542389-.627611 1.5781709-1.477667 1.7005809l-4.423731.635744c-.593185 2.269196-1.502824 4.440991-2.713028 6.479846l2.689194 3.535419c.516389.681812.45151 1.636085-.153592 2.241555l-5.816658 5.813829c-.605101.605471-1.566379.675231-2.254898.163214l-3.604129-2.679863c-2.048343 1.199094-4.227769 2.100718-6.503852 2.689077l-.614371 4.394923c-.117842.845026-.843435 1.475504-1.701435 1.478137l-8.248981.022376z"/><path d="m60.684963 7.56929744c-.4501852 0-.8871297-.18427351-1.2181482-.50017094-.3177778-.32905983-.5031481-.75025641-.5031481-1.21094018 0-.11846153.0132407-.22376068.0397222-.34222222.0132407-.10529914.052963-.21059829.0926852-.31589743.0397222-.10529915.0926852-.1974359.1588889-.28957265.0662037-.10529915.1324074-.18427351.2118518-.26324787.6487963-.64495726 1.8007408-.64495726 2.4362963 0 .0794445.07897436.1588889.15794872.2118519.26324787.0662037.09213675.1191666.1842735.1588889.28957265.0529629.10529914.0794444.21059829.1059259.31589743.0264815.11846154.0264815.22376069.0264815.34222222 0 .44752137-.1721297.88188035-.5031482 1.21094018-.1588889.15794871-.3442592.28957265-.5561111.368547-.2118519.09213676-.4237037.13162394-.662037.13162394"/><path d="m118.110188 84.7929265c-.225093 0-.450185-.0526496-.662037-.1316239-.211852-.0921368-.397222-.2105983-.556111-.368547-.331019-.3290599-.503148-.7634188-.503148-1.2109402 0-.4593675.18537-.8937265.503148-1.2109402.079444-.0789743.172129-.1579487.264815-.2237607.092685-.0526495.18537-.1052991.291296-.1579487.105926-.0394872.211852-.065812.331018-.0921367.211852-.0526496.450186-.0526496.662037 0 .119167.0263247.225093.0526495.331019.0921367.105926.0526496.198611.1052992.291296.1579487.092685.065812.185371.1447864.264815.2237607.317778.3172137.503148.7515727.503148 1.2109402 0 .4475214-.172129.8818803-.503148 1.2109402-.158889.1579487-.344259.2764102-.556111.368547-.211852.0789743-.436944.1316239-.662037.1316239"/><path d="m132.193437 66.0146667c-.952009 0-1.723944-.7673676-1.723944-1.7137436 0-7.826359-1.541223-15.4184274-4.581297-22.5642906-2.936796-6.902359-7.142055-13.1031624-12.499259-18.4286667-5.35588-5.3228718-11.593593-9.5032479-18.537037-12.4239829-7.1870741-3.0234017-14.8243333-4.55550427-22.6999259-4.55550427-1.7702871 0-3.5630834.0802906-5.3280741.23955556-.9573056.07897436-1.7861759-.61073504-1.8709167-1.5531624-.0860648-.94242735.6130463-1.77429059 1.5610834-1.85984615 1.8682685-.16847863 3.7643426-.25271795 5.6379074-.25271795 8.3390185 0 16.427787 1.62292308 24.0438611 4.82533334 7.3539078 3.09316237 13.9583888 7.52099147 19.6307218 13.15712817 5.672334 5.6400855 10.125195 12.2054872 13.235445 19.5171966 3.221472 7.5710086 4.855379 15.6105983 4.855379 23.8989573 0 .946376-.771935 1.7137436-1.723944 1.7137436"/><path d="m72.3094065 125.438265c-8.3350463 0-16.4238148-1.622923-24.0425371-4.825333-6.4866388-2.727248-12.4224629-6.518017-17.6446111-11.269641-.6766018-.614684-1.3386389-1.243847-1.9861111-1.887488-5.6736574-5.640085-10.1265185-12.206803-13.2367685-19.5171962-3.2214722-7.568376-4.8540556-15.6105983-4.8540556-23.8989572 0-.9463761.7719352-1.7137436 1.7226204-1.7137436.9520093 0 1.7239445.7673675 1.7239445 1.7137436 0 7.8276752 1.5412222 15.4184273 4.5826203 22.5642906 2.9367963 6.9023589 7.1420556 13.1031624 12.4979352 18.4286668.6117222.606786 1.2380093 1.201726 1.8775371 1.78482 4.9308518 4.485744 10.5356574 8.064599 16.6595 10.639163 7.1910463 3.022085 14.8283055 4.554188 22.6999259 4.554188 4.3681204 0 8.7269722-.48306 12.9560648-1.434701.9281759-.20665 1.8510556.369863 2.0615833 1.291231.2092037.922683-.3720648 1.841418-1.3002407 2.050701-4.4780185 1.008239-9.0924167 1.520256-13.7174074 1.520256"/><path d="m111.921731 110.921067c-8.568084 0-15.5380097-6.93-15.5380097-15.4460687 0-8.5173846 6.9699257-15.4473846 15.5380097-15.4473846.952009 0 1.723944.7673675 1.723944 1.7137436 0 .946376-.771935 1.7137436-1.723944 1.7137436-6.666713 0-12.0914449 5.3913162-12.0914449 12.0198974 0 6.6272647 5.4247319 12.0185807 12.0914449 12.0185807 6.668037 0 12.091444-5.391316 12.091444-12.0185807 0-2.557453-.795769-4.9964445-2.301241-7.0576752-.558759-.7647351-.387953-1.8361539.381334-2.3916069.769287-.5567692 1.847083-.3869743 2.407166.379077 1.937121 2.6495897 2.96063 5.786188 2.96063 9.0702051 0 8.5160687-6.97125 15.4460687-15.539333 15.4460687"/><path d="m56.7567 34.2398598h-4.1324352c-.9520092 0-1.7239444-.7673675-1.7239444-1.7137436 0-.946376.7719352-1.7137436 1.7239444-1.7137436h4.1324352c.9520093 0 1.7239444.7673676 1.7239444 1.7137436 0 .9463761-.7719351 1.7137436-1.7239444 1.7137436"/><path d="m29.9610157 4.00031453c-14.6204259 0-26.51325922 11.82246157-26.51325922 26.35637607s11.89283332 26.3576923 26.51325922 26.3576923c14.620426 0 26.5132593-11.8237778 26.5132593-26.3576923s-11.8928333-26.35637607-26.5132593-26.35637607m0 56.14023927c-16.5204722 0-29.96114811-13.3611453-29.96114811-29.7838632 0-16.4214017 13.44067591-29.78386325 29.96114811-29.78386325 16.5204723 0 29.9611482 13.36246155 29.9611482 29.78386325 0 16.4227179-13.4406759 29.7838632-29.9611482 29.7838632" mask="url(#a)" transform="translate(0 .742359)"/><path d="m111.921731 92.9654564c-1.391602 0-2.523686 1.1253846-2.523686 2.5087521 0 1.3833676 1.132084 2.5100684 2.523686 2.5100684 1.391601 0 2.523685-1.1267008 2.523685-2.5100684 0-1.3833675-1.132084-2.5087521-2.523685-2.5087521m0 8.4449916c-3.291649 0-5.97025-2.6627523-5.97025-5.9362395 0-3.2721709 2.678601-5.9362393 5.97025-5.9362393 3.292972 0 5.971574 2.6640684 5.971574 5.9362393 0 3.2734872-2.678602 5.9362395-5.971574 5.9362395"/><path d="m29.6171537 9.70555385c-.9520093 0-1.7239444-.76736753-1.7239444-1.71374359v-4.10666667c0-.94637607.7719351-1.71374359 1.7239444-1.71374359s1.7239444.76736752 1.7239444 1.71374359v4.10666667c0 .94637606-.7719351 1.71374359-1.7239444 1.71374359"/><path d="m29.5595565 59.970759c-.9520093 0-1.7239445-.7673675-1.7239445-1.7137436v-4.1079829c0-.9463761.7719352-1.7137436 1.7239445-1.7137436.9520092 0 1.7239444.7673675 1.7239444 1.7137436v4.1079829c0 .9463761-.7719352 1.7137436-1.7239444 1.7137436"/><path d="m18.0062157 12.784106c-.5958333 0-1.1744537-.3066838-1.4935555-.8568718l-2.0655556-3.55779488c-.4766666-.8200171-.1933148-1.86642735.6302593-2.34027351.8235741-.47516239 1.8788611-.19217094 2.3542037.62784616l2.0655555 3.55779483c.4766667.8187009.1933149 1.8664274-.6302592 2.3389573-.2714352.1566325-.5680278.2303419-.8606482.2303419"/><path d="m43.2386981 56.3420188c-.5958333 0-1.1744537-.3066838-1.4935555-.8555556l-2.0655556-3.5577948c-.4766666-.8200171-.1946389-1.8664274.6302593-2.3402735.82225-.4698975 1.8788611-.192171 2.3528796.6265299l2.0668797 3.5564786c.4766666.8200171.1933148 1.8677436-.6302593 2.3402735-.2714352.1553163-.5680278.2303419-.8606482.2303419"/><path d="m9.49612685 20.6494256c-.19463889 0-.39192592-.0500171-.57332407-.1526837l-3.57897222-2.0546496c-.54949075-.3158974-.73750926-1.0135043-.42105556-1.5597436.3164537-.5449231 1.01821296-.7331453 1.57035185-.4198803l3.57897225 2.0546495c.5494907.3158975.7375092 1.0135043.4197315 1.5597436-.2118519.3672308-.59848153.5725641-.99570375.5725641"/><path d="m53.2558481 46.4021744c-.2926203 0-.5878888-.0737094-.859324-.2303419l-3.5789722-2.0533334c-.8248982-.4738461-1.106926-1.5215726-.6315834-2.3415897.4766667-.8187009 1.5319537-1.1030085 2.3555278-.6252137l3.5776481 2.0533334c.8248982.4738461 1.106926 1.5215726.6315834 2.3415897-.3191019.5488718-.8990463.8555556-1.4948797.8555556"/><path d="m6.37276852 32.1844205h-4.13243519c-.63555555 0-1.14929629-.5120171-1.14929629-1.1424957 0-.6317949.51374074-1.1424957 1.14929629-1.1424957h4.13243519c.63423148 0 1.14929629.5107008 1.14929629 1.1424957 0 .6304786-.51506481 1.1424957-1.14929629 1.1424957"/><path d="m5.89107037 45.7826205c-.39722222 0-.78385185-.2053333-.9957037-.5725641-.31777778-.5462393-.12975926-1.2438461.41973148-1.5597436l3.57897222-2.0546496c.55081482-.3132649 1.25257403-.1250427 1.56902773.4198804.3177778.5462393.1297593 1.2438461-.4197314 1.5597436l-3.57897226 2.0546496c-.18139814.1026666-.37868518.1526837-.57332407.1526837"/><path d="m49.7090509 21.2701641c-.5958333 0-1.1744537-.3066838-1.4935555-.8568718-.4766667-.8187008-.1933148-1.8664273.6302592-2.3402735l3.5789723-2.0533333c.8248981-.4764787 1.877537-.1948034 2.3555277.6265299.4753426.8187008.1933148 1.8664273-.6315833 2.3402735l-3.5789722 2.0533333c-.2714352.1566325-.5680278.2303419-.8606482.2303419"/><path d="m15.8882269 56.3138513c-.2926204 0-.589213-.0737094-.8606482-.2303419-.8235741-.4725299-1.1069259-1.5202564-.6302593-2.3389573l2.0655556-3.5577948c.4766667-.8200171 1.5319537-1.1043248 2.3542037-.6278462.8248982.4738462 1.1069259 1.5202564.6315833 2.3402735l-2.0668796 3.5577949c-.3191018.550188-.8977222.8568718-1.4935555.8568718"/><path d="m41.2196176 12.8124051c-.2926204 0-.589213-.0737094-.8606482-.2303419-.823574-.4725299-1.1069259-1.5202564-.6302592-2.3389572l2.0655555-3.55779489c.4766667-.82001709 1.5306297-1.10300855 2.3542037-.62784615.8248982.47384615 1.106926 1.52025641.6315834 2.3402735l-2.0668797 3.55779484c-.3191018.5501881-.8977222.8568718-1.4935555.8568718"/><path d="m25.422487 29.7460872c-.3720648 0-.7467777-.1197778-1.0632314-.3659146l-6.5965371-5.1491282c-.7494259-.5844102-.8791852-1.661094-.2912963-2.4060854.5878889-.7449915 1.6696574-.8752992 2.4190834-.2882564l6.5978611 5.1491282c.7481018.583094.8791852 1.661094.2912963 2.4047692-.3402871.4304103-.8460834.6554872-1.357176.6554872"/><path d="m33.8769648 29.2653966c-.4197315 0-.840787-.1513675-1.1731296-.4593675-.6977871-.6449573-.7361852-1.7282223-.088713-2.4205641l8.6819537-9.2755385c.6461482-.6936581 1.7371852-.7331453 2.4362963-.088188.696463.6449572.7361852 1.7295384.0873889 2.4218803l-8.6806296 9.2755385c-.3402871.3619658-.8010648.5462393-1.2631667.5462393"/><path d="m132.172781 67.8681949c-.434296 0-.854027-.1632137-1.173129-.4593675l-7.948417-7.3406667c-.696463-.643641-.736185-1.726906-.088713-2.4205641.647472-.6923419 1.737185-.7331453 2.436297-.0881881l6.616398 6.1126154 5.795472-6.8891965c.611722-.7265642 1.700111-.8213334 2.427028-.2145471.730889.6067864.827546 1.6861026.217148 2.4126667l-6.959334 8.2725641c-.303212.3619658-.742805.5817778-1.214175.6107351-.037075.0026324-.072825.0039487-.108575.0039487"/><path d="m80.6987398 131.852299c-.3707407 0-.7441296-.118461-1.0592592-.361966-.75075-.583094-.8831575-1.659777-.2979167-2.406085l5.5571389-7.077419-7.40025-5.149128c-.7812037-.542291-.9705463-1.609761-.4250278-2.385026.5455185-.776581 1.6219907-.964803 2.4005463-.421196l8.8885093 6.182376c.3879537.268513.6461481.684444.716324 1.149077.070176.464632-.054287.938478-.3455833 1.308342l-6.6746574 8.501589c-.338963.433043-.8474074.659436-1.3598241.659436"/></g><path d="m138.890736 146.315532c0 3.926342-28.735055 7.110324-64.1818425 7.110324-35.446787 0-64.1818426-3.183982-64.1818426-7.110324s28.7350556-7.110325 64.1818426-7.110325c35.4467875 0 64.1818425 3.183983 64.1818425 7.110325" fill="#bfefdd"/><path d="m29.9610157 27.5055846c-1.9940555 0-3.6147222 1.6123932-3.6147222 3.5933333 0 1.9822565 1.6206667 3.5946496 3.6147222 3.5946496 1.9940556 0 3.6160463-1.6123931 3.6160463-3.5946496 0-1.9809401-1.6219907-3.5933333-3.6160463-3.5933333m0 10.6141539c-3.8941018 0-7.0626111-3.1484445-7.0626111-7.0208206 0-3.8710598 3.1685093-7.0208205 7.0626111-7.0208205 3.8941019 0 7.0626112 3.1497607 7.0626112 7.0208205 0 3.8723761-3.1685093 7.0208206-7.0626112 7.0208206" fill="#00be78"/></g></g></svg>