<?xml version="1.0" encoding="UTF-8"?>
<svg width="87px" height="87px" viewBox="0 0 87 87" version="1.1" xmlns="http://www.w3.org/2000/svg" xmlns:xlink="http://www.w3.org/1999/xlink">
    <!-- Generator: Sketch 48.1 (47250) - http://www.bohemiancoding.com/sketch -->
    <title>ic_account_settings</title>
    <desc>Created with Sketch.</desc>
    <defs></defs>
    <g id="Desktop-1440" stroke="none" stroke-width="1" fill="none" fill-rule="evenodd" transform="translate(-276.000000, -1684.000000)">
        <g id="ic_account_settings" transform="translate(260.000000, 1668.000000)">
            <rect id="Rectangle-3" x="0" y="0" width="120" height="120"></rect>
            <path d="M43.3075,85.1695 L44.623,85.912 C46.738,87.106 48.9985,88.0435 51.343,88.699 L52.7965,89.104 L52.3825,90.5545 C52.189,91.231 52.0915,91.9165 52.0915,92.59 C52.0915,96.676 55.4155,100 59.5,100 C63.586,100 66.91,96.676 66.91,92.59 C66.91,91.9165 66.811,91.231 66.619,90.5545 L66.205,89.104 L67.657,88.699 C70.003,88.0435 72.2635,87.106 74.377,85.912 L75.694,85.1695 L76.4275,86.491 C76.7665,87.1045 77.182,87.658 77.6605,88.138 C80.548,91.0255 85.249,91.0255 88.138,88.138 C89.5375,86.7385 90.3085,84.8785 90.3085,82.897 C90.3085,80.9185 89.5375,79.0585 88.138,77.659 C87.6625,77.1835 87.109,76.7665 86.4925,76.4245 L85.174,75.6895 L85.915,74.377 C87.109,72.2605 88.0465,70 88.699,67.657 L89.104,66.205 L90.5545,66.6175 C91.2325,66.8095 91.9165,66.907 92.5915,66.907 C96.6775,66.907 100,63.583 100,59.5 C100,55.414 96.6775,52.09 92.5915,52.09 C91.9165,52.09 91.231,52.189 90.5575,52.3825 L89.1055,52.7965 L88.699,51.3415 C88.0465,48.9985 87.1105,46.738 85.915,44.6215 L85.174,43.309 L86.4925,42.574 C87.109,42.2305 87.6625,41.815 88.1395,41.338 C89.5375,39.94 90.3085,38.0785 90.3085,36.1 C90.3085,34.1215 89.5375,32.26 88.138,30.8605 C85.249,27.9715 80.5495,27.9715 77.6605,30.8605 C77.182,31.339 76.7665,31.8925 76.4275,32.5075 L75.694,33.8275 L74.377,33.085 C72.2635,31.891 70.003,30.9535 67.657,30.2995 L66.205,29.893 L66.619,28.444 C66.811,27.766 66.91,27.0805 66.91,26.407 C66.91,22.324 63.586,19 59.5,19 C55.4155,19 52.0915,22.324 52.0915,26.407 C52.0915,27.0805 52.189,27.766 52.3825,28.444 L52.7965,29.893 L51.343,30.2995 C48.9985,30.9535 46.738,31.891 44.623,33.085 L43.3075,33.8275 L42.574,32.5075 C42.235,31.8925 41.8195,31.339 41.3395,30.8605 C38.4535,27.9715 33.751,27.9715 30.8635,30.8605 C29.464,32.26 28.693,34.1215 28.693,36.1 C28.693,38.0785 29.464,39.94 30.8635,41.3395 C31.339,41.815 31.8925,42.2305 32.509,42.574 L33.8275,43.309 L33.0865,44.6215 C31.891,46.738 30.955,48.9985 30.3025,51.3415 L29.896,52.7965 L28.444,52.3825 C27.7705,52.189 27.085,52.09 26.41,52.09 C22.324,52.09 19,55.414 19,59.5 C19,63.583 22.324,66.907 26.41,66.907 C27.085,66.907 27.769,66.8095 28.447,66.6175 L29.8975,66.205 L30.3025,67.657 C30.955,70 31.8925,72.2605 33.0865,74.377 L33.8275,75.6895 L32.509,76.4245 C31.8925,76.7665 31.339,77.1835 30.8635,77.659 C29.464,79.0585 28.693,80.9185 28.693,82.897 C28.693,84.8785 29.464,86.7385 30.8635,88.138 C33.751,91.0255 38.452,91.0255 41.341,88.138 C41.8195,87.658 42.235,87.1045 42.574,86.491 L43.3075,85.1695 Z M59.5,103 C53.761,103 49.0915,98.329 49.0915,92.59 C49.0915,92.122 49.1245,91.651 49.1905,91.1815 C47.5405,90.643 45.9325,89.9785 44.389,89.191 C44.104,89.5705 43.795,89.926 43.4635,90.259 C39.403,94.318 32.8,94.3165 28.7425,90.259 C26.776,88.2925 25.693,85.6795 25.693,82.897 C25.693,80.1175 26.776,77.5045 28.7425,75.538 C29.0725,75.2065 29.4295,74.896 29.8075,74.611 C29.0215,73.066 28.3555,71.458 27.8185,69.8095 C27.349,69.8755 26.878,69.907 26.41,69.907 C20.6695,69.907 16,65.239 16,59.5 C16,53.761 20.6695,49.09 26.41,49.09 C26.878,49.09 27.349,49.1245 27.8185,49.189 C28.3555,47.539 29.0215,45.9325 29.8075,44.3875 C29.4295,44.101 29.074,43.792 28.7425,43.462 C26.776,41.494 25.693,38.881 25.693,36.1 C25.693,33.319 26.776,30.7045 28.7425,28.7395 C32.8015,24.682 39.4045,24.6805 43.462,28.7395 C43.7935,29.0725 44.104,29.428 44.389,29.8075 C45.9325,29.02 47.5405,28.354 49.1905,27.817 C49.1245,27.346 49.0915,26.8765 49.0915,26.407 C49.0915,20.668 53.761,16 59.5,16 C65.2405,16 69.91,20.668 69.91,26.407 C69.91,26.8765 69.877,27.346 69.811,27.817 C71.461,28.354 73.0675,29.0185 74.6125,29.8075 C74.8975,29.428 75.2065,29.0725 75.538,28.7395 C79.5985,24.682 86.203,24.6835 90.259,28.7395 C92.2255,30.7045 93.3085,33.319 93.3085,36.1 C93.3085,38.881 92.2255,41.494 90.259,43.4605 C89.929,43.792 89.572,44.101 89.1925,44.3875 C89.98,45.9325 90.646,47.539 91.183,49.189 C91.651,49.1245 92.122,49.09 92.5915,49.09 C98.332,49.09 103,53.761 103,59.5 C103,65.239 98.332,69.907 92.5915,69.907 C92.1235,69.907 91.6525,69.8755 91.183,69.8095 C90.646,71.458 89.98,73.066 89.1925,74.611 C89.572,74.896 89.929,75.2065 90.2605,75.538 C92.2255,77.5045 93.3085,80.1175 93.3085,82.897 C93.3085,85.6795 92.2255,88.2925 90.259,90.259 C86.203,94.318 79.5985,94.3195 75.5395,90.259 C75.208,89.926 74.8975,89.5705 74.6125,89.191 C73.0675,89.977 71.461,90.643 69.811,91.1815 C69.877,91.651 69.91,92.122 69.91,92.59 C69.91,98.329 65.2405,103 59.5,103 L59.5,103 Z M59.5,44.4535 C51.205,44.4535 44.455,51.2035 44.455,59.5 C44.455,67.795 51.205,74.545 59.5,74.545 C67.7965,74.545 74.5465,67.795 74.5465,59.5 C74.5465,51.2035 67.7965,44.4535 59.5,44.4535 L59.5,44.4535 Z M59.5,77.545 C49.5505,77.545 41.455,69.451 41.455,59.5 C41.455,49.549 49.5505,41.4535 59.5,41.4535 C69.451,41.4535 77.5465,49.549 77.5465,59.5 C77.5465,69.451 69.451,77.545 59.5,77.545 L59.5,77.545 Z M59.5,57.181 C58.222,57.181 57.1825,58.2205 57.1825,59.5 C57.1825,60.7765 58.222,61.8175 59.5,61.8175 C60.778,61.8175 61.819,60.7765 61.819,59.5 C61.819,58.2205 60.778,57.181 59.5,57.181 L59.5,57.181 Z M59.5,64.8175 C56.5675,64.8175 54.1825,62.4325 54.1825,59.5 C54.1825,56.5675 56.5675,54.181 59.5,54.181 C62.4325,54.181 64.819,56.5675 64.819,59.5 C64.819,62.4325 62.4325,64.8175 59.5,64.8175 L59.5,64.8175 Z" id="Fill-1" fill="#00BE78"></path>
        </g>
    </g>
</svg>