<?xml version="1.0" encoding="UTF-8"?>
<svg width="87px" height="87px" viewBox="0 0 87 87" version="1.1" xmlns="http://www.w3.org/2000/svg" xmlns:xlink="http://www.w3.org/1999/xlink">
    <!-- Generator: Sketch 48.1 (47250) - http://www.bohemiancoding.com/sketch -->
    <title>Ic_world</title>
    <desc>Created with Sketch.</desc>
    <defs></defs>
    <g id="Desktop-1440" stroke="none" stroke-width="1" fill="none" fill-rule="evenodd" transform="translate(-1076.000000, -1684.000000)">
        <g id="Ic_world" transform="translate(1060.000000, 1668.000000)">
            <polygon id="Fill-11" points="0 120 120 120 120 0 0 0"></polygon>
            <path d="M85.4125,90.5965 C82.927,88.741 80.2735,87.1735 77.494,85.9135 C80.0455,79.372 81.646,71.335 81.9445,62.5 L99.877,62.5 C99.0475,73.7635 93.5995,83.7625 85.4125,90.5965 L85.4125,90.5965 Z M76.3195,88.6735 C78.6295,89.725 80.845,91.0015 82.9375,92.497 C78.8845,95.3845 74.284,97.549 69.3175,98.7895 C72.001,96.3325 74.3725,92.8825 76.3195,88.6735 L76.3195,88.6735 Z M36.0625,92.497 C38.155,91.003 40.369,89.7265 42.6805,88.6735 C44.6275,92.8825 47.0005,96.3325 49.6825,98.7895 C44.7175,97.549 40.1155,95.3845 36.0625,92.497 L36.0625,92.497 Z M19.123,62.5 L37.057,62.5 C37.3555,71.335 38.956,79.372 41.5075,85.9135 C38.725,87.1735 36.073,88.741 33.589,90.5965 C25.402,83.7625 19.9525,73.765 19.123,62.5 L19.123,62.5 Z M33.592,28.4005 C36.0775,30.256 38.731,31.8235 41.509,33.0805 C38.6695,40.3585 37,49.4815 37,59.5 L19,59.5 C19,47.0155 24.682,35.8345 33.592,28.4005 L33.592,28.4005 Z M42.682,30.3205 C40.3735,29.2705 38.1595,27.9955 36.0655,26.5 C40.1185,23.6125 44.719,21.451 49.6825,20.209 C47.0005,22.666 44.629,26.1145 42.682,30.3205 L42.682,30.3205 Z M82.9345,26.5 C80.842,27.994 78.628,29.2705 76.318,30.3205 C74.371,26.1145 71.9995,22.666 69.3175,20.209 C74.2825,21.451 78.8815,23.6125 82.9345,26.5 L82.9345,26.5 Z M59.5,19 C64.903,19 69.8725,23.851 73.444,31.5175 C68.9875,33.1585 64.306,33.997 59.5,33.997 C54.697,33.997 50.017,33.16 45.556,31.519 C49.1275,23.851 54.0985,19 59.5,19 L59.5,19 Z M40,59.5 C40,50.059 41.6545,41.2555 44.377,34.279 C49.21,36.0775 54.2875,36.997 59.5,36.997 C64.7155,36.997 69.7945,36.076 74.623,34.279 C77.3455,41.2555 79,50.059 79,59.5 L40,59.5 Z M74.6245,84.7165 C69.7915,82.9165 64.714,81.997 59.5,81.997 C54.286,81.997 49.2055,82.918 44.3755,84.7165 C41.944,78.4855 40.372,70.7965 40.063,62.5 L78.9385,62.5 C78.6295,70.7965 77.056,78.4855 74.6245,84.7165 L74.6245,84.7165 Z M59.5,100 C54.097,100 49.126,95.146 45.5545,87.4765 C50.011,85.8355 54.694,84.997 59.5,84.997 C64.3045,84.997 68.986,85.834 73.447,87.4765 C69.874,95.146 64.903,100 59.5,100 L59.5,100 Z M100,59.5 L82,59.5 C82,49.4815 80.3305,40.3585 77.4925,33.0805 C80.272,31.822 82.924,30.2545 85.4095,28.4005 C94.3195,35.8345 100,47.0155 100,59.5 L100,59.5 Z M59.5,16 C35.515,16 16,35.5135 16,59.5 C16,83.485 35.515,103 59.5,103 C83.4865,103 103,83.485 103,59.5 C103,35.5135 83.4865,16 59.5,16 L59.5,16 Z" id="Fill-1" fill="#00BE78"></path>
        </g>
    </g>
</svg>