<?xml version="1.0" encoding="UTF-8"?>
<svg width="144px" height="21px" viewBox="0 0 144 21" version="1.1" xmlns="http://www.w3.org/2000/svg" xmlns:xlink="http://www.w3.org/1999/xlink">
    <!-- Generator: Sketch 48.1 (47250) - http://www.bohemiancoding.com/sketch -->
    <title>Group</title>
    <desc>Created with Sketch.</desc>
    <defs></defs>
    <g id="Footer" stroke="none" stroke-width="1" fill="none" fill-rule="evenodd" transform="translate(-141.000000, -62.000000)">
        <g id="Group" transform="translate(141.000000, 62.000000)" fill="#00BE78">
            <path d="M12.0146813,6.30860786 C11.8064731,5.2010627 10.8548549,3.46737513 8.17817818,3.46737513 C6.18551885,3.46737513 4.87687688,4.68969182 4.87687688,6.02422954 C4.87687688,7.13177471 5.62028695,8.01296493 7.16716717,8.29734325 L10.1114448,8.83804463 C13.9479479,9.5477152 16,11.9343252 16,14.7768332 C16,17.8737513 13.2932933,21 8.38638639,21 C2.79546213,21 0.32699366,17.5606801 0,14.6907545 L3.80647314,13.7253985 C3.98465132,15.7134963 5.44210878,17.5045696 8.41641642,17.5045696 C10.617284,17.5045696 11.8365032,16.453135 11.8365032,15.0325186 C11.8365032,13.8675877 10.9142476,12.9583422 9.27861195,12.645271 L6.33433433,12.0765143 C2.97364031,11.4229543 0.802802803,9.34941552 0.802802803,6.30860786 C0.802802803,2.72837407 4.16349683,0 8.14814815,0 C13.2639306,0 15.2265599,2.95600425 15.702369,5.22848034 L12.0146813,6.30860786 Z" id="Fill-4"></path>
            <path d="M28.1338929,13.5 C28.1338929,10.8274157 26.3896765,9.47661623 24.5,9.47661623 C22.6103235,9.47661623 20.8661071,10.8274157 20.8661071,13.5 C20.8661071,16.1435695 22.6103235,17.522739 24.5,17.522739 C26.3896765,17.522739 28.1338929,16.1719395 28.1338929,13.5 M32,13.5 C32,17.8386778 28.7731345,21 24.5,21 C20.2268655,21 17,17.8386778 17,13.5 C17,9.13230743 20.2268655,6 24.5,6 C28.7731345,6 32,9.13230743 32,13.5" id="Fill-6"></path>
            <polygon id="Fill-8" points="34 21 38 21 38 0 34 0"></polygon>
            <path d="M47.5441293,17.6828479 C49.5694652,17.6828479 51.0955476,16.038835 51.0955476,13.4427184 C51.0955476,10.8466019 49.5984456,9.3171521 47.5441293,9.3171521 C45.4601739,9.3171521 43.9334329,10.8466019 43.9334329,13.4427184 C43.9334329,16.010356 45.4305348,17.6828479 47.5441293,17.6828479 Z M51.124528,18.6640777 C50.5086941,20.0187702 49.0115922,21 47.0745148,21 C42.8183455,21 40,17.7411003 40,13.4427184 C40,9.28932039 42.759726,6 46.9566172,6 C49.5398261,6 50.743172,7.3566343 51.0955476,8.16440129 L51.0955476,6.40517799 L54.8821024,6.40517799 L54.8821024,18.028479 C54.8821024,19.2983819 54.9703609,20.2783172 55,20.5961165 L51.2720646,20.5961165 C51.2127865,20.2783172 51.124528,19.5288026 51.124528,18.836246 L51.124528,18.6640777 Z" id="Fill-10"></path>
            <path d="M67,10.8393124 C66.5496634,10.7538114 66.1599102,10.7265777 65.7997756,10.7265777 C63.7601346,10.7265777 61.9904263,11.6582221 61.9904263,14.6494911 L61.9904263,21 L58,21 L58,7.11400136 L61.8699327,7.11400136 L61.8699327,9.17299254 C62.7699327,7.33947071 64.8102468,7 66.0697083,7 C66.3995512,7 66.6997756,7.02913368 67,7.05700068 L67,10.8393124 Z" id="Fill-11"></path>
            <path d="M67,10.5149841 C67,4.0922423 71.9496655,0 77.4481392,0 C83.1226213,0 86.0446191,3.40998937 86.8558161,6.67842721 L83.0933948,7.84335813 C82.6017406,5.91137088 81.0085731,3.77980871 77.4481392,3.77980871 C74.381308,3.77980871 71.139118,5.94006376 71.139118,10.5149841 C71.139118,14.8048884 74.2072482,17.1634431 77.5065922,17.1634431 C81.0085731,17.1634431 82.7160486,14.9196599 83.2674547,13.0437832 L87,14.1513284 C86.218679,17.2495218 83.2674547,21 77.5065922,21 C71.7762551,21 67,16.9364506 67,10.5149841" id="Fill-12"></path>
            <path d="M98,10.8393124 C97.5496297,10.7538114 97.1598474,10.7265777 96.800359,10.7265777 C94.7605655,10.7265777 92.9900516,11.6582221 92.9900516,14.6494911 L92.9900516,21 L89,21 L89,7.11400136 L92.8702222,7.11400136 L92.8702222,9.17299254 C93.7696163,7.33947071 95.8107562,7 97.0703119,7 C97.3995063,7 97.6997532,7.02913368 98,7.05700068 L98,10.8393124 Z" id="Fill-13"></path>
            <path d="M109.218737,11.8906465 C109.160444,10.4831069 108.236826,9.10329264 106.04372,9.10329264 C104.052047,9.10329264 102.954846,10.5978765 102.868055,11.8906465 L109.218737,11.8906465 Z M112.79727,16.5168931 C112.075734,18.9592933 109.824335,21 106.332593,21 C102.434744,21 99,18.2126461 99,13.4419704 C99,8.93113824 102.348601,6 105.985427,6 C110.372935,6 113,8.78799862 113,13.3272008 C113,13.8733236 112.941707,14.4484611 112.941707,14.5052012 L102.781911,14.5052012 C102.868055,16.3731087 104.454916,17.724553 106.360444,17.724553 C108.149387,17.724553 109.132593,16.8328318 109.593754,15.5684319 L112.79727,16.5168931 Z" id="Fill-14"></path>
            <path d="M124.218264,11.8906465 C124.161269,10.4831069 123.236399,9.10329264 121.043394,9.10329264 C119.052461,9.10329264 117.955311,10.5978765 117.867876,11.8906465 L124.218264,11.8906465 Z M127.79728,16.5168931 C127.07513,18.9592933 124.82513,21 121.332254,21 C117.435881,21 114,18.2126461 114,13.4419704 C114,8.93113824 117.348446,6 120.985751,6 C125.372409,6 128,8.78799862 128,13.3272008 C128,13.8733236 127.94171,14.4484611 127.94171,14.5052012 L117.781736,14.5052012 C117.867876,16.3731087 119.455311,17.724553 121.361399,17.724553 C123.150259,17.724553 124.132124,16.8328318 124.59456,15.5684319 L127.79728,16.5168931 Z" id="Fill-15"></path>
            <path d="M136.529699,17.6047866 C138.528775,17.6047866 140.088305,16.1219817 140.088305,13.5814939 C140.088305,11.0717378 138.528775,9.67280488 136.529699,9.67280488 C134.528643,9.67280488 132.940734,11.0992683 132.940734,13.6103049 C132.940734,16.1219817 134.470565,17.6047866 136.529699,17.6047866 Z M143.882524,18.1182622 C143.882524,19.060061 143.940602,20.0870122 144,20.6581098 L140.26452,20.6581098 C140.205781,20.372561 140.117344,19.6875 140.117344,19.03125 C139.470565,20.1446341 137.999472,21 136.058474,21 C131.940866,21 129,17.8615244 129,13.6103049 C129,9.50121951 131.853089,6.27759146 135.940998,6.27759146 C138.440998,6.27759146 139.61774,7.27637195 140.028907,8.01841463 L140.028907,0 L143.882524,0 L143.882524,18.1182622 Z" id="Fill-16"></path>
        </g>
    </g>
</svg>