<?xml version="1.0" encoding="UTF-8"?>
<svg width="294px" height="46px" viewBox="0 0 294 46" version="1.1" xmlns="http://www.w3.org/2000/svg" xmlns:xlink="http://www.w3.org/1999/xlink">
    <!-- Generator: Sketch 48.1 (47250) - http://www.bohemiancoding.com/sketch -->
    <title>Page 1</title>
    <desc>Created with Sketch.</desc>
    <defs>
        <polygon id="path-1" points="0.119 0.7492 57.713 0.7492 57.713 17 0.119 17"></polygon>
        <polygon id="path-3" points="0 45.4394 293.686 45.4394 293.686 0.0004 0 0.0004"></polygon>
    </defs>
    <g id="Desktop-1440" stroke="none" stroke-width="1" fill="none" fill-rule="evenodd" transform="translate(-140.000000, -56.000000)">
        <g id="Page-1" transform="translate(140.000000, 56.000000)">
            <g id="Group-3" transform="translate(6.000000, 28.439400)">
                <mask id="mask-2" fill="white">
                    <use xlink:href="#path-1"></use>
                </mask>
                <g id="Clip-2"></g>
                <path d="M28.784,0.7492 C27.918,0.7492 27.064,0.7622 26.217,0.7832 C24.332,8.7342 18.095,14.5742 10.686,14.5742 C6.642,14.5742 2.949,12.8312 0.119,9.9582 C2.639,14.8472 14.116,17.0002 28.784,17.0002 C44.761,17.0002 57.713,13.3622 57.713,8.8742 C57.713,4.3872 44.761,0.7492 28.784,0.7492" id="Fill-1" fill="#D2D2D2" mask="url(#mask-2)"></path>
            </g>
            <path d="M90.6167,21.0407 C90.3047,19.3037 88.8787,16.5847 84.8677,16.5847 C81.8817,16.5847 79.9207,18.5017 79.9207,20.5947 C79.9207,22.3317 81.0347,23.7137 83.3527,24.1597 L87.7647,25.0077 C93.5137,26.1207 96.5887,29.8637 96.5887,34.3217 C96.5887,39.1787 92.5327,44.0817 85.1797,44.0817 C76.8017,44.0817 73.1027,38.6877 72.6127,34.1867 L78.3167,32.6727 C78.5837,35.7907 80.7677,38.5997 85.2247,38.5997 C88.5227,38.5997 90.3497,36.9507 90.3497,34.7227 C90.3497,32.8957 88.9677,31.4697 86.5167,30.9787 L82.1047,30.0867 C77.0687,29.0617 73.8157,25.8097 73.8157,21.0407 C73.8157,15.4257 78.8517,11.1467 84.8227,11.1467 C92.4887,11.1467 95.4297,15.7827 96.1427,19.3467 L90.6167,21.0407 Z" id="Fill-4" fill="#00BE78"></path>
            <path d="M115.5906,32.4496 C115.5906,28.3046 112.9166,26.2096 110.0196,26.2096 C107.1226,26.2096 104.4486,28.3046 104.4486,32.4496 C104.4486,36.5496 107.1226,38.6886 110.0196,38.6886 C112.9166,38.6886 115.5906,36.5936 115.5906,32.4496 M121.5176,32.4496 C121.5176,39.1786 116.5706,44.0816 110.0196,44.0816 C103.4686,44.0816 98.5216,39.1786 98.5216,32.4496 C98.5216,25.6756 103.4686,20.8176 110.0196,20.8176 C116.5706,20.8176 121.5176,25.6756 121.5176,32.4496" id="Fill-6" fill="#00BE78"></path>
            <mask id="mask-4" fill="white">
                <use xlink:href="#path-3"></use>
            </mask>
            <g id="Clip-9"></g>
            <polygon id="Fill-8" fill="#00BE78" mask="url(#mask-4)" points="124.702 43.4124 130.629 43.4124 130.629 11.1464 124.702 11.1464"></polygon>
            <path d="M145.3065,38.9112 C148.3815,38.9112 150.6985,36.3712 150.6985,32.3602 C150.6985,28.3492 148.4255,25.9862 145.3065,25.9862 C142.1425,25.9862 139.8245,28.3492 139.8245,32.3602 C139.8245,36.3272 142.0975,38.9112 145.3065,38.9112 Z M150.7425,40.4272 C149.8075,42.5202 147.5345,44.0362 144.5935,44.0362 C138.1315,44.0362 133.8525,39.0012 133.8525,32.3602 C133.8525,25.9432 138.0425,20.8612 144.4145,20.8612 C148.3365,20.8612 150.1635,22.9572 150.6985,24.2052 L150.6985,21.4872 L156.4475,21.4872 L156.4475,39.4452 C156.4475,41.4072 156.5815,42.9212 156.6265,43.4122 L150.9665,43.4122 C150.8765,42.9212 150.7425,41.7632 150.7425,40.6932 L150.7425,40.4272 Z" id="Fill-10" fill="#00BE78" mask="url(#mask-4)"></path>
            <path d="M174.4379,27.3692 C173.7689,27.2342 173.1899,27.1912 172.6549,27.1912 C169.6249,27.1912 166.9959,28.6622 166.9959,33.3852 L166.9959,43.4122 L161.0679,43.4122 L161.0679,21.4872 L166.8169,21.4872 L166.8169,24.7382 C168.1539,21.8432 171.1849,21.3072 173.0559,21.3072 C173.5459,21.3072 173.9919,21.3532 174.4379,21.3972 L174.4379,27.3692 Z" id="Fill-11" fill="#00BE78" mask="url(#mask-4)"></path>
            <path d="M176.0126,27.637 C176.0126,17.564 183.6336,11.146 192.0996,11.146 C200.8366,11.146 205.3356,16.494 206.5846,21.62 L200.7916,23.447 C200.0346,20.417 197.5816,17.074 192.0996,17.074 C187.3776,17.074 182.3856,20.462 182.3856,27.637 C182.3856,34.365 187.1096,38.064 192.1896,38.064 C197.5816,38.064 200.2106,34.545 201.0596,31.603 L206.8066,33.34 C205.6036,38.199 201.0596,44.081 192.1896,44.081 C183.3666,44.081 176.0126,37.708 176.0126,27.637" id="Fill-12" fill="#00BE78" mask="url(#mask-4)"></path>
            <path d="M223.1089,27.3692 C222.4399,27.2342 221.8609,27.1912 221.3269,27.1912 C218.2969,27.1912 215.6669,28.6622 215.6669,33.3852 L215.6669,43.4122 L209.7399,43.4122 L209.7399,21.4872 L215.4889,21.4872 L215.4889,24.7382 C216.8249,21.8432 219.8569,21.3072 221.7279,21.3072 C222.2169,21.3072 222.6629,21.3532 223.1089,21.3972 L223.1089,27.3692 Z" id="Fill-13" fill="#00BE78" mask="url(#mask-4)"></path>
            <path d="M239.8815,29.9535 C239.7915,27.7705 238.3655,25.6305 234.9795,25.6305 C231.9045,25.6305 230.2105,27.9485 230.0765,29.9535 L239.8815,29.9535 Z M245.4065,37.1285 C244.2925,40.9165 240.8165,44.0815 235.4255,44.0815 C229.4075,44.0815 224.1045,39.7585 224.1045,32.3595 C224.1045,25.3635 229.2745,20.8175 234.8895,20.8175 C241.6635,20.8175 245.7195,25.1415 245.7195,32.1815 C245.7195,33.0285 245.6295,33.9205 245.6295,34.0085 L229.9435,34.0085 C230.0765,36.9055 232.5265,39.0015 235.4685,39.0015 C238.2305,39.0015 239.7485,37.6185 240.4605,35.6575 L245.4065,37.1285 Z" id="Fill-14" fill="#00BE78" mask="url(#mask-4)"></path>
            <path d="M263.3077,29.9535 C263.2197,27.7705 261.7917,25.6305 258.4057,25.6305 C255.3317,25.6305 253.6377,27.9485 253.5027,29.9535 L263.3077,29.9535 Z M268.8337,37.1285 C267.7187,40.9165 264.2447,44.0815 258.8517,44.0815 C252.8357,44.0815 247.5307,39.7585 247.5307,32.3595 C247.5307,25.3635 252.7007,20.8175 258.3167,20.8175 C265.0897,20.8175 269.1467,25.1415 269.1467,32.1815 C269.1467,33.0285 269.0567,33.9205 269.0567,34.0085 L253.3697,34.0085 C253.5027,36.9055 255.9537,39.0015 258.8967,39.0015 C261.6587,39.0015 263.1747,37.6185 263.8887,35.6575 L268.8337,37.1285 Z" id="Fill-15" fill="#00BE78" mask="url(#mask-4)"></path>
            <path d="M282.3674,38.6433 C285.3964,38.6433 287.7594,36.3273 287.7594,32.3593 C287.7594,28.4393 285.3964,26.2543 282.3674,26.2543 C279.3354,26.2543 276.9294,28.4823 276.9294,32.4043 C276.9294,36.3273 279.2474,38.6433 282.3674,38.6433 Z M293.5084,39.4453 C293.5084,40.9163 293.5964,42.5203 293.6864,43.4123 L288.0264,43.4123 C287.9374,42.9663 287.8034,41.8963 287.8034,40.8713 C286.8234,42.6103 284.5944,43.9463 281.6534,43.9463 C275.4144,43.9463 270.9584,39.0443 270.9584,32.4043 C270.9584,25.9863 275.2814,20.9513 281.4754,20.9513 C285.2634,20.9513 287.0464,22.5113 287.6694,23.6703 L287.6694,11.1463 L293.5084,11.1463 L293.5084,39.4453 Z" id="Fill-16" fill="#00BE78" mask="url(#mask-4)"></path>
            <path d="M7.263,5.7115 C7.263,5.9035 7.108,6.0585 6.916,6.0585 C6.724,6.0585 6.569,5.9035 6.569,5.7115 C6.569,5.5195 6.724,5.3645 6.916,5.3645 C7.108,5.3645 7.263,5.5195 7.263,5.7115" id="Fill-17" fill="#D2D2D2" mask="url(#mask-4)"></path>
            <g id="Group-47" mask="url(#mask-4)" fill="#D2D2D2">
                <g transform="translate(7.000000, 3.439400)">
                    <path d="M17.0966,0.7416 L15.7726,0.7416 C15.6216,0.7416 15.4996,0.6196 15.4996,0.4686 C15.4996,0.3186 15.6216,0.1956 15.7726,0.1956 L17.0966,0.1956 C17.2476,0.1956 17.3696,0.3186 17.3696,0.4686 C17.3696,0.6196 17.2476,0.7416 17.0966,0.7416" id="Fill-18"></path>
                    <path d="M18.7083,2.4545 L16.3623,2.4545 C16.2123,2.4545 16.0903,2.3325 16.0903,2.1815 C16.0903,2.0305 16.2123,1.9085 16.3623,1.9085 L18.7083,1.9085 C18.8593,1.9085 18.9813,2.0305 18.9813,2.1815 C18.9813,2.3325 18.8593,2.4545 18.7083,2.4545" id="Fill-19"></path>
                    <path d="M20.0044,4.167 L16.8014,4.167 C16.6504,4.167 16.5284,4.045 16.5284,3.894 C16.5284,3.744 16.6504,3.621 16.8014,3.621 L20.0044,3.621 C20.1554,3.621 20.2774,3.744 20.2774,3.894 C20.2774,4.045 20.1554,4.167 20.0044,4.167" id="Fill-20"></path>
                    <path d="M20.9324,5.8799 L17.1684,5.8799 C17.0174,5.8799 16.8954,5.7579 16.8954,5.6069 C16.8954,5.4569 17.0174,5.3339 17.1684,5.3339 L20.9324,5.3339 C21.0834,5.3339 21.2054,5.4569 21.2054,5.6069 C21.2054,5.7579 21.0834,5.8799 20.9324,5.8799" id="Fill-21"></path>
                    <path d="M21.8185,7.5928 L17.4475,7.5928 C17.2965,7.5928 17.1745,7.4708 17.1745,7.3198 C17.1745,7.1688 17.2965,7.0468 17.4475,7.0468 L21.8185,7.0468 C21.9695,7.0468 22.0915,7.1688 22.0915,7.3198 C22.0915,7.4708 21.9695,7.5928 21.8185,7.5928" id="Fill-22"></path>
                    <path d="M22.7045,9.3053 L19.3075,9.3053 C19.1565,9.3053 19.0345,9.1833 19.0345,9.0323 C19.0345,8.8823 19.1565,8.7593 19.3075,8.7593 L22.7045,8.7593 C22.8555,8.7593 22.9775,8.8823 22.9775,9.0323 C22.9775,9.1833 22.8555,9.3053 22.7045,9.3053" id="Fill-23"></path>
                    <path d="M23.4361,11.0182 L17.7281,11.0182 C17.5781,11.0182 17.4561,10.8962 17.4561,10.7452 C17.4561,10.5942 17.5781,10.4722 17.7281,10.4722 L23.4361,10.4722 C23.5871,10.4722 23.7091,10.5942 23.7091,10.7452 C23.7091,10.8962 23.5871,11.0182 23.4361,11.0182" id="Fill-24"></path>
                    <path d="M23.9594,12.7311 L17.7614,12.7311 C17.6104,12.7311 17.4884,12.6091 17.4884,12.4581 C17.4884,12.3071 17.6104,12.1851 17.7614,12.1851 L23.9594,12.1851 C24.1104,12.1851 24.2324,12.3071 24.2324,12.4581 C24.2324,12.6091 24.1104,12.7311 23.9594,12.7311" id="Fill-25"></path>
                    <path d="M24.4766,14.4436 L17.6756,14.4436 C17.5246,14.4436 17.4026,14.3216 17.4026,14.1706 C17.4026,14.0196 17.5246,13.8976 17.6756,13.8976 L24.4766,13.8976 C24.6276,13.8976 24.7496,14.0196 24.7496,14.1706 C24.7496,14.3216 24.6276,14.4436 24.4766,14.4436" id="Fill-26"></path>
                    <path d="M24.772,16.1565 L17.453,16.1565 C17.302,16.1565 17.18,16.0345 17.18,15.8835 C17.18,15.7325 17.302,15.6105 17.453,15.6105 L24.772,15.6105 C24.923,15.6105 25.045,15.7325 25.045,15.8835 C25.045,16.0345 24.923,16.1565 24.772,16.1565" id="Fill-27"></path>
                    <path d="M25.164,17.8693 L17.097,17.8693 C16.946,17.8693 16.824,17.7473 16.824,17.5963 C16.824,17.4463 16.946,17.3233 17.097,17.3233 L25.164,17.3233 C25.315,17.3233 25.437,17.4463 25.437,17.5963 C25.437,17.7473 25.315,17.8693 25.164,17.8693" id="Fill-28"></path>
                    <path d="M25.3627,19.5819 L16.7577,19.5819 C16.6067,19.5819 16.4847,19.4599 16.4847,19.3089 C16.4847,19.1579 16.6067,19.0359 16.7577,19.0359 L25.3627,19.0359 C25.5137,19.0359 25.6357,19.1579 25.6357,19.3089 C25.6357,19.4599 25.5137,19.5819 25.3627,19.5819" id="Fill-29"></path>
                    <path d="M25.3627,21.2947 L16.2107,21.2947 C16.0597,21.2947 15.9377,21.1727 15.9377,21.0217 C15.9377,20.8717 16.0597,20.7487 16.2107,20.7487 L25.3627,20.7487 C25.5137,20.7487 25.6357,20.8717 25.6357,21.0217 C25.6357,21.1727 25.5137,21.2947 25.3627,21.2947" id="Fill-30"></path>
                    <path d="M25.3627,23.0076 L17.4117,23.0076 C17.2617,23.0076 17.1397,22.8856 17.1397,22.7346 C17.1397,22.5846 17.2617,22.4616 17.4117,22.4616 L25.3627,22.4616 C25.5137,22.4616 25.6357,22.5846 25.6357,22.7346 C25.6357,22.8856 25.5137,23.0076 25.3627,23.0076" id="Fill-31"></path>
                    <path d="M25.0673,24.7201 L14.7913,24.7201 C14.6413,24.7201 14.5183,24.5981 14.5183,24.4471 C14.5183,24.2971 14.6413,24.1741 14.7913,24.1741 L25.0673,24.1741 C25.2183,24.1741 25.3403,24.2971 25.3403,24.4471 C25.3403,24.5981 25.2183,24.7201 25.0673,24.7201" id="Fill-32"></path>
                    <path d="M24.772,26.433 L21.777,26.433 C21.627,26.433 21.504,26.311 21.504,26.16 C21.504,26.01 21.627,25.887 21.777,25.887 L24.772,25.887 C24.923,25.887 25.045,26.01 25.045,26.16 C25.045,26.311 24.923,26.433 24.772,26.433" id="Fill-33"></path>
                    <path d="M18.4257,26.433 L13.7607,26.433 C13.6097,26.433 13.4877,26.311 13.4877,26.16 C13.4877,26.01 13.6097,25.887 13.7607,25.887 L18.4257,25.887 C18.5767,25.887 18.6987,26.01 18.6987,26.16 C18.6987,26.311 18.5767,26.433 18.4257,26.433" id="Fill-34"></path>
                    <path d="M24.1813,28.1459 L12.6713,28.1459 C12.5203,28.1459 12.3983,28.0239 12.3983,27.8729 C12.3983,27.7219 12.5203,27.5999 12.6713,27.5999 L24.1813,27.5999 C24.3323,27.5999 24.4543,27.7219 24.4543,27.8729 C24.4543,28.0239 24.3323,28.1459 24.1813,28.1459" id="Fill-35"></path>
                    <path d="M23.5906,29.8584 L11.2646,29.8584 C11.1136,29.8584 10.9916,29.7364 10.9916,29.5854 C10.9916,29.4354 11.1136,29.3124 11.2646,29.3124 L23.5906,29.3124 C23.7416,29.3124 23.8636,29.4354 23.8636,29.5854 C23.8636,29.7364 23.7416,29.8584 23.5906,29.8584" id="Fill-36"></path>
                    <path d="M22.7442,31.5713 L9.5172,31.5713 C9.3662,31.5713 9.2442,31.4493 9.2442,31.2983 C9.2442,31.1473 9.3662,31.0253 9.5172,31.0253 L22.7442,31.0253 C22.8952,31.0253 23.0172,31.1473 23.0172,31.2983 C23.0172,31.4493 22.8952,31.5713 22.7442,31.5713" id="Fill-37"></path>
                    <path d="M21.6228,33.2842 L7.2648,33.2842 C7.1148,33.2842 6.9918,33.1622 6.9918,33.0112 C6.9918,32.8612 7.1148,32.7382 7.2648,32.7382 L21.6228,32.7382 C21.7738,32.7382 21.8958,32.8612 21.8958,33.0112 C21.8958,33.1622 21.7738,33.2842 21.6228,33.2842" id="Fill-38"></path>
                    <path d="M20.1918,34.9967 L5.8508,34.9967 C5.6998,34.9967 5.5778,34.8747 5.5778,34.7237 C5.5778,34.5727 5.6998,34.4507 5.8508,34.4507 L20.1918,34.4507 C20.3428,34.4507 20.4648,34.5727 20.4648,34.7237 C20.4648,34.8747 20.3428,34.9967 20.1918,34.9967" id="Fill-39"></path>
                    <path d="M10.7754,36.7096 L0.5424,36.7096 C0.3924,36.7096 0.2694,36.5876 0.2694,36.4366 C0.2694,36.2856 0.3924,36.1636 0.5424,36.1636 L10.7754,36.1636 C10.9264,36.1636 11.0484,36.2856 11.0484,36.4366 C11.0484,36.5876 10.9264,36.7096 10.7754,36.7096" id="Fill-40"></path>
                    <path d="M18.302,36.7096 L12.6,36.7096 C12.45,36.7096 12.327,36.5876 12.327,36.4366 C12.327,36.2856 12.45,36.1636 12.6,36.1636 L18.302,36.1636 C18.453,36.1636 18.575,36.2856 18.575,36.4366 C18.575,36.5876 18.453,36.7096 18.302,36.7096" id="Fill-41"></path>
                    <path d="M15.5861,38.4225 L3.2211,38.4225 C3.0701,38.4225 2.9481,38.3005 2.9481,38.1495 C2.9481,37.9985 3.0701,37.8765 3.2211,37.8765 L15.5861,37.8765 C15.7371,37.8765 15.8591,37.9985 15.8591,38.1495 C15.8591,38.3005 15.7371,38.4225 15.5861,38.4225" id="Fill-42"></path>
                    <path d="M18.0456,9.0325 C18.0456,9.2075 17.9036,9.3495 17.7286,9.3495 C17.5536,9.3495 17.4116,9.2075 17.4116,9.0325 C17.4116,8.8575 17.5536,8.7155 17.7286,8.7155 C17.9036,8.7155 18.0456,8.8575 18.0456,9.0325" id="Fill-43"></path>
                    <path d="M15.9812,22.7346 C15.9812,22.9096 15.8392,23.0516 15.6642,23.0516 C15.4892,23.0516 15.3472,22.9096 15.3472,22.7346 C15.3472,22.5596 15.4892,22.4176 15.6642,22.4176 C15.8392,22.4176 15.9812,22.5596 15.9812,22.7346" id="Fill-44"></path>
                    <path d="M20.4176,26.1601 C20.4176,26.3351 20.2756,26.4771 20.1006,26.4771 C19.9256,26.4771 19.7836,26.3351 19.7836,26.1601 C19.7836,25.9851 19.9256,25.8431 20.1006,25.8431 C20.2756,25.8431 20.4176,25.9851 20.4176,26.1601" id="Fill-45"></path>
                    <path d="M4.1853,34.7239 C4.1853,34.8989 4.0433,35.0409 3.8683,35.0409 C3.6933,35.0409 3.5513,34.8989 3.5513,34.7239 C3.5513,34.5489 3.6933,34.4069 3.8683,34.4069 C4.0433,34.4069 4.1853,34.5489 4.1853,34.7239" id="Fill-46"></path>
                </g>
            </g>
            <path d="M16.392,43.2869 C7.353,43.2869 0,34.7199 0,24.1889 C0,18.5699 2.078,12.0519 5.422,7.1789 C5.508,7.0549 5.677,7.0239 5.802,7.1089 C5.926,7.1939 5.957,7.3639 5.872,7.4879 C2.587,12.2749 0.546,18.6739 0.546,24.1889 C0.546,34.4189 7.654,42.7409 16.392,42.7409 C25.13,42.7409 32.238,34.4189 32.238,24.1889 C32.238,11.4559 23.525,0.5459 16.392,0.5459 C13.662,0.5459 10.891,1.8879 8.378,4.4269 C8.272,4.5349 8.099,4.5349 7.992,4.4289 C7.885,4.3229 7.885,4.1509 7.991,4.0439 C10.607,1.3979 13.513,-0.0001 16.392,-0.0001 C25.22,-0.0001 32.784,13.3009 32.784,24.1889 C32.784,34.7199 25.43,43.2869 16.392,43.2869" id="Fill-48" fill="#D2D2D2" mask="url(#mask-4)"></path>
        </g>
    </g>
</svg>