<?xml version="1.0" encoding="UTF-8"?>
<svg width="261px" height="261px" viewBox="0 0 261 261" version="1.1" xmlns="http://www.w3.org/2000/svg" xmlns:xlink="http://www.w3.org/1999/xlink">
    <!-- Generator: Sketch 49.1 (51147) - http://www.bohemiancoding.com/sketch -->
    <title>Group 2</title>
    <desc>Created with Sketch.</desc>
    <defs>
        <polygon id="path-1" points="0 105.231958 184.211454 105.231958 184.211454 0.000130864198 0 0.000130864198"></polygon>
    </defs>
    <g id="Pages" stroke="none" stroke-width="1" fill="none" fill-rule="evenodd">
        <g id="Home" transform="translate(-590.000000, -2258.000000)">
            <g id="Group-2" transform="translate(590.000000, 2258.000000)">
                <circle id="Oval-Copy" fill="#FFFFFF" cx="130.5" cy="130.5" r="130.5"></circle>
                <g id="Page-1" transform="translate(38.000000, 78.000000)">
                    <path d="M178.180191,105.231958 L70.7174965,105.231958 C61.6144468,105.231958 52.6032411,103.433884 44.1995177,99.9424272 L30.7824255,93.6792667 L162.814695,93.875563 L179.099943,100.643859 C181.512816,101.647588 180.793809,105.231958 178.180191,105.231958" id="Fill-1" fill="#BFEFDD"></path>
                    <mask id="mask-2" fill="white">
                        <use xlink:href="#path-1"></use>
                    </mask>
                    <g id="Clip-4"></g>
                    <polygon id="Fill-3" fill="#BFEFDD" mask="url(#mask-2)" points="36.4056383 85.7070198 99.6034752 85.7070198 99.6034752 25.5094889 36.4056383 25.5094889"></polygon>
                    <path d="M42.1824929,22.5051086 C42.1824929,32.0869852 35.7416064,40.154763 26.9482021,42.6778247 L26.9482021,48.0511086 C27.1948688,48.0602691 27.4349752,48.0903679 27.684266,48.0903679 C39.3143369,48.0903679 48.7427766,38.685158 48.7427766,27.0853556 C48.7427766,23.7443926 47.9502943,20.5931827 46.5582021,17.7900716 L41.6261809,17.7900716 C41.9778121,19.3080963 42.1824929,20.881084 42.1824929,22.5051086" id="Fill-5" fill="#99E5C9" mask="url(#mask-2)"></path>
                    <path d="M157.121943,95.5795457 L151.144213,95.5795457 C150.202156,95.5795457 149.437227,94.8166074 149.437227,93.8756938 C149.437227,92.9347802 150.202156,92.171842 151.144213,92.171842 L157.121943,92.171842 C161.830915,92.171842 165.660809,88.3532247 165.660809,83.6565086 L165.660809,28.0117432 C165.660809,23.3150272 161.830915,19.4937926 157.121943,19.4937926 L37.1947092,19.4937926 C32.4857376,19.4937926 28.655844,23.3150272 28.655844,28.0117432 L28.655844,83.6565086 C28.655844,88.3532247 32.4857376,92.171842 37.1947092,92.171842 L136.69978,92.171842 C137.641837,92.171842 138.406766,92.9347802 138.406766,93.8756938 C138.406766,94.8166074 137.641837,95.5795457 136.69978,95.5795457 L37.1947092,95.5795457 C30.6029362,95.5795457 25.2392482,90.2311259 25.2392482,83.6565086 L25.2392482,28.0117432 C25.2392482,21.4371259 30.6029362,16.0873975 37.1947092,16.0873975 L157.121943,16.0873975 C163.713716,16.0873975 169.076092,21.4371259 169.076092,28.0117432 L169.076092,83.6565086 C169.076092,90.2311259 163.713716,95.5795457 157.121943,95.5795457" id="Fill-6" fill="#00BE78" mask="url(#mask-2)"></path>
                    <path d="M143.986025,95.5833407 C143.538613,95.5833407 143.106947,95.4001309 142.778933,95.0860568 C142.464039,94.7588963 142.279039,94.3270444 142.279039,93.8677111 C142.279039,93.7643284 142.293472,93.6465506 142.318401,93.5405506 C142.345954,93.4371679 142.372195,93.3324765 142.411557,93.2277852 C142.464039,93.1230938 142.516521,93.0184025 142.569004,92.9267975 C142.634606,92.8351926 142.700209,92.7566741 142.778933,92.6650691 C143.18567,92.2724765 143.776096,92.0892667 144.32716,92.2070444 C144.432124,92.2201309 144.537089,92.2593901 144.642053,92.2986494 C144.747018,92.3379086 144.85067,92.4033407 144.942514,92.4556864 C145.03567,92.5211185 145.113082,92.5865506 145.193117,92.6650691 C145.283649,92.7566741 145.350564,92.8351926 145.416167,92.9267975 C145.468649,93.0184025 145.521131,93.1230938 145.573613,93.2277852 C145.611663,93.3324765 145.639216,93.4371679 145.664145,93.5405506 C145.691699,93.6465506 145.704819,93.7643284 145.704819,93.8677111 C145.704819,94.3270444 145.521131,94.7588963 145.193117,95.0860568 C144.878223,95.4001309 144.445245,95.5833407 143.986025,95.5833407" id="Fill-7" fill="#00BE78" mask="url(#mask-2)"></path>
                    <path d="M179.614007,68.2628222 L168.650461,68.2628222 C167.707092,68.2628222 166.942163,67.499884 166.942163,66.5589704 C166.942163,65.6180568 167.707092,64.8551185 168.650461,64.8551185 L179.614007,64.8551185 C180.264787,64.8551185 180.794858,64.3264272 180.794858,63.6773407 L180.794858,47.9893407 C180.794858,47.3402543 180.264787,46.8102543 179.614007,46.8102543 L168.650461,46.8102543 C167.707092,46.8102543 166.942163,46.047316 166.942163,45.1077111 C166.942163,44.1667975 167.707092,43.4038593 168.650461,43.4038593 L179.614007,43.4038593 C182.148901,43.4038593 184.211454,45.4610444 184.211454,47.9893407 L184.211454,63.6773407 C184.211454,66.205637 182.148901,68.2628222 179.614007,68.2628222" id="Fill-8" fill="#00BE78" mask="url(#mask-2)"></path>
                    <path d="M39.0912872,27.2540395 C37.9406135,27.2540395 37.005117,28.1884099 37.005117,29.3360889 L37.005117,82.3308543 C37.005117,83.4785333 37.9406135,84.4129037 39.0912872,84.4129037 L155.224053,84.4129037 C156.374727,84.4129037 157.311535,83.4785333 157.311535,82.3308543 L157.311535,29.3360889 C157.311535,28.1884099 156.374727,27.2540395 155.224053,27.2540395 L39.0912872,27.2540395 Z M155.224053,87.8192988 L39.0912872,87.8192988 C36.0565,87.8192988 33.5885213,85.3564346 33.5885213,82.3308543 L33.5885213,29.3360889 C33.5885213,26.3092 36.0565,23.8463358 39.0912872,23.8463358 L155.224053,23.8463358 C158.25884,23.8463358 160.728131,26.3092 160.728131,29.3360889 L160.728131,82.3308543 C160.728131,85.3564346 158.25884,87.8192988 155.224053,87.8192988 Z" id="Fill-9" fill="#00BE78" mask="url(#mask-2)"></path>
                    <path d="M42.8385213,21.1964667 C42.8385213,32.7962691 33.4100816,42.201479 21.7800106,42.201479 C10.1486277,42.201479 0.720187943,32.7962691 0.720187943,21.1964667 C0.720187943,9.5966642 10.1486277,0.191454321 21.7800106,0.191454321 C33.4100816,0.191454321 42.8385213,9.5966642 42.8385213,21.1964667" id="Fill-10" fill="#FFFFFF" mask="url(#mask-2)"></path>
                    <path d="M20.0017801,30.9793506 C19.4730213,30.9793506 18.9731277,30.7346346 18.6490496,30.3158691 L11.1506454,20.6135975 C10.5746525,19.8689802 10.7124184,18.7985111 11.4602908,18.2240173 C12.2081631,17.6495235 13.2788014,17.7908568 13.8547943,18.5328568 L19.9571702,26.4278938 L30.7777021,11.5002148 C31.3313901,10.7385852 32.3980922,10.5658444 33.1630213,11.1180914 C33.9266383,11.6690296 34.0985177,12.7342642 33.5461418,13.4972025 L21.386,30.2739926 C21.0697943,30.7097704 20.5672766,30.9701901 20.0280213,30.9793506 L20.0017801,30.9793506 Z" id="Fill-11" fill="#00BE78" mask="url(#mask-2)"></path>
                    <path d="M8.26635106,8.0614963 C8.04330142,8.0614963 7.82025177,8.00915062 7.6103227,7.92932346 C7.40039362,7.83902716 7.21670567,7.72124938 7.05925887,7.54981728 C6.90181206,7.39408889 6.77060638,7.21087901 6.69188298,7.00018765 C6.60003901,6.79211358 6.5606773,6.58273086 6.5606773,6.34586667 C6.5606773,5.90223704 6.74436525,5.47038519 7.05925887,5.14322469 C7.13798227,5.06470617 7.21670567,4.99927407 7.32167021,4.93253333 C7.41351418,4.86840988 7.50535816,4.8160642 7.6103227,4.77680494 C7.71528723,4.73754568 7.82025177,4.69828642 7.92521631,4.6852 C8.48940071,4.56742222 9.07982624,4.7506321 9.47344326,5.14322469 C9.78833688,5.47038519 9.97202482,5.90223704 9.97202482,6.34586667 C9.97202482,6.58273086 9.93266312,6.79211358 9.84081915,7.00018765 C9.76209574,7.21087901 9.63089007,7.39408889 9.47344326,7.54981728 C9.31599645,7.72124938 9.11918794,7.83902716 8.92237943,7.92932346 C8.71245035,8.00915062 8.48940071,8.0614963 8.26635106,8.0614963" id="Fill-12" fill="#00BE78" mask="url(#mask-2)"></path>
                    <path d="M21.775156,43.4369679 C9.76852482,43.4369679 0.000262411348,33.6941284 0.000262411348,21.717437 C0.000262411348,17.8019802 1.05646809,13.965042 3.05604255,10.6175358 C3.54019149,9.80879506 4.58721277,9.54575802 5.39806383,10.0260296 C6.20760284,10.5076099 6.47395035,11.5532148 5.99111348,12.3606469 C4.30643262,15.1807704 3.4155461,18.417042 3.4155461,21.717437 C3.4155461,31.8149185 11.6513262,40.0292642 21.775156,40.0292642 C31.8989858,40.0292642 40.134766,31.8149185 40.134766,21.717437 C40.134766,11.6199556 31.8989858,3.40691852 21.775156,3.40691852 C19.2179574,3.40691852 16.7460426,3.91990617 14.4276383,4.93148642 C13.5629929,5.30706667 12.5566454,4.91578272 12.178773,4.05338765 C11.7995887,3.19230123 12.1945177,2.1872642 13.0578511,1.81037531 C15.8105461,0.609041975 18.7429929,0.00052345679 21.775156,0.00052345679 C33.7817872,0.00052345679 43.5500496,9.74336296 43.5500496,21.717437 C43.5500496,33.6941284 33.7817872,43.4369679 21.775156,43.4369679" id="Fill-13" fill="#00BE78" mask="url(#mask-2)"></path>
                </g>
            </g>
        </g>
    </g>
</svg>