<?xml version="1.0" encoding="UTF-8"?>
<svg width="72px" height="61px" viewBox="0 0 72 61" version="1.1" xmlns="http://www.w3.org/2000/svg" xmlns:xlink="http://www.w3.org/1999/xlink">
    <!-- Generator: Sketch 49.1 (51147) - http://www.bohemiancoding.com/sketch -->
    <title>Page 1</title>
    <desc>Created with Sketch.</desc>
    <defs>
        <polygon id="path-1" points="0 0 72 0 72 61 0 61"></polygon>
    </defs>
    <g id="Pages" stroke="none" stroke-width="1" fill="none" fill-rule="evenodd">
        <g id="About" transform="translate(-150.000000, -3174.000000)">
            <g id="Page-1" transform="translate(150.000000, 3174.000000)">
                <mask id="mask-2" fill="white">
                    <use xlink:href="#path-1"></use>
                </mask>
                <g id="Clip-2"></g>
                <path d="M56.8547613,61 C47.7676181,61 39.8444052,54.4299867 39.8444052,41.0580053 C39.8444052,13.3719813 57.7863097,1.40597065 70.8360697,0 L70.8360697,11.025984 C60.5829755,13.3719813 53.5933316,24.163976 53.3609497,33.7839893 C54.0580955,33.3160107 55.690831,32.6099733 58.0207123,32.6099733 C65.7095226,32.6099733 72,38.0080053 72,46.924016 C72,54.6660107 65.4771407,61 56.8547613,61 M17.0103562,61 C7.92321293,61 0,54.4299867 0,41.0580053 C0,13.3719813 17.9419045,1.40597065 30.9916646,0 L30.9916646,11.025984 C20.7385703,13.3719813 13.7489265,24.163976 13.5165446,33.7839893 C14.2136903,33.3160107 15.8444052,32.6099733 18.1742864,32.6099733 C25.8651175,32.6099733 32.1555948,38.0080053 32.1555948,46.924016 C32.1555948,54.6660107 25.6327355,61 17.0103562,61" id="Fill-1" fill="#D0D4D5" mask="url(#mask-2)"></path>
            </g>
        </g>
    </g>
</svg>