<?xml version="1.0" encoding="UTF-8"?>
<svg width="78px" height="63px" viewBox="0 0 78 63" version="1.1" xmlns="http://www.w3.org/2000/svg" xmlns:xlink="http://www.w3.org/1999/xlink">
    <!-- Generator: Sketch 49.1 (51147) - http://www.bohemiancoding.com/sketch -->
    <title>Page 1</title>
    <desc>Created with Sketch.</desc>
    <defs>
        <polygon id="path-1" points="0.308477733 16.2272727 15.9422429 16.2272727 15.9422429 0.106559091 0.308477733 0.106559091"></polygon>
        <polygon id="path-3" points="0.155616194 16.2272727 15.7893814 16.2272727 15.7893814 0.106559091 0.155616194 0.106559091"></polygon>
        <polygon id="path-5" points="14.9820411 0.121828571 0.0398147368 0.121828571 0.0398147368 12.6692387 14.9820411 12.6692387 14.9820411 0.121828571"></polygon>
        <polygon id="path-7" points="64.5109589 30.6155114 64.5109589 0.501225714 0.22609506 0.501225714 0.22609506 30.6155114 64.5109589 30.6155114"></polygon>
    </defs>
    <g id="Pages" stroke="none" stroke-width="1" fill="none" fill-rule="evenodd">
        <g id="Sign-up" transform="translate(-540.000000, -331.000000)">
            <g id="Page-1" transform="translate(540.000000, 331.000000)">
                <g id="Group-3" transform="translate(56.000000, 46.000000)">
                    <mask id="mask-2" fill="white">
                        <use xlink:href="#path-1"></use>
                    </mask>
                    <g id="Clip-2"></g>
                    <path d="M8.12492308,1.90958939 C6.50361134,1.90958939 4.97849393,2.56048333 3.83203239,3.74327121 C1.46477733,6.18367273 1.46477733,10.154847 3.83203239,12.5952485 C6.20016194,15.03565 10.0523077,15.0347485 12.4186883,12.5952485 C14.7859433,10.154847 14.7859433,6.18367273 12.4186883,3.74327121 C11.2722267,2.56048333 9.74623482,1.90958939 8.12492308,1.90958939 M8.12492308,16.227453 C6.12233198,16.227453 4.11974089,15.4413318 2.59549798,13.8699909 C-0.453862348,10.7264076 -0.453862348,5.61121061 2.59549798,2.46852879 C4.07164372,0.944968182 6.03575709,0.106559091 8.12492308,0.106559091 C10.2140891,0.106559091 12.1782024,0.944968182 13.6552227,2.46852879 C16.704583,5.61121061 16.704583,10.7264076 13.6552227,13.8699909 C12.1301053,15.4413318 10.1275142,16.227453 8.12492308,16.227453" id="Fill-1" fill="#00BE78" mask="url(#mask-2)"></path>
                </g>
                <g id="Group-6" transform="translate(18.000000, 46.000000)">
                    <mask id="mask-4" fill="white">
                        <use xlink:href="#path-3"></use>
                    </mask>
                    <g id="Clip-5"></g>
                    <path d="M7.97206154,1.90958939 C6.3507498,1.90958939 4.82563239,2.56048333 3.67917085,3.74327121 C1.31191579,6.18367273 1.31191579,10.154847 3.67917085,12.5952485 C6.04642591,15.03565 9.89857166,15.0347485 12.2658267,12.5952485 C14.6330818,10.154847 14.6330818,6.18367273 12.2658267,3.74327121 C11.1193652,2.56048333 9.59337328,1.90958939 7.97206154,1.90958939 M7.97206154,16.227453 C5.96947045,16.227453 3.96687935,15.4413318 2.44263644,13.8699909 C-0.606723887,10.7264076 -0.606723887,5.61121061 2.44263644,2.46852879 C3.91965668,0.944968182 5.88289555,0.106559091 7.97206154,0.106559091 C10.0612275,0.106559091 12.0253409,0.944968182 13.5023611,2.46852879 C16.5517215,5.61121061 16.5517215,10.7264076 13.5023611,13.8699909 C11.9772437,15.4413318 9.97465263,16.227453 7.97206154,16.227453" id="Fill-4" fill="#00BE78" mask="url(#mask-4)"></path>
                </g>
                <g id="Group-9" transform="translate(1.000000, 0.000000)">
                    <mask id="mask-6" fill="white">
                        <use xlink:href="#path-5"></use>
                    </mask>
                    <g id="Clip-8"></g>
                    <path d="M14.1286989,12.6692387 C13.7518358,12.6692387 13.40652,12.4004895 13.3050568,11.993734 L10.7940568,1.93742921 L0.892446316,1.93742921 C0.421793684,1.93742921 0.0398147368,1.53067365 0.0398147368,1.0294927 C0.0398147368,0.528311746 0.421793684,0.12155619 0.892446316,0.12155619 L12.1054042,0.12155619 L14.9531937,11.5279625 C15.0742674,12.0118927 14.8031305,12.5094419 14.3478253,12.6383689 C14.2744989,12.6592514 14.2011726,12.6692387 14.1286989,12.6692387" id="Fill-7" fill="#00BE78" mask="url(#mask-6)"></path>
                </g>
                <g id="Group-12" transform="translate(13.000000, 9.000000)">
                    <mask id="mask-8" fill="white">
                        <use xlink:href="#path-7"></use>
                    </mask>
                    <g id="Clip-11"></g>
                    <path d="M9.44016695,28.8440829 L55.2140539,28.8440829 L62.4408947,2.27265429 L2.29333476,2.27265429 L9.44016695,28.8440829 Z M55.9044649,30.6155114 L8.74795805,30.6155114 C8.34072346,30.6155114 7.98383134,30.3453686 7.87955051,29.95654 L0.256262842,1.61368286 C0.184345034,1.34796857 0.242778253,1.06454 0.412684075,0.846654286 C0.582589897,0.628768571 0.84598887,0.501225714 1.12467038,0.501225714 L63.612256,0.501225714 C63.8909375,0.501225714 64.1552354,0.629654286 64.3251413,0.84754 C64.4950471,1.06631143 64.5534803,1.34974 64.4806635,1.61634 L56.7719735,29.9591971 C56.6667937,30.3462543 56.3108005,30.6155114 55.9044649,30.6155114 L55.9044649,30.6155114 Z" id="Fill-10" fill="#00BE78" mask="url(#mask-8)"></path>
                </g>
                <path d="M65.1009941,47 L28.9178033,47 C26.2216845,47 23.8608949,45.2782039 23.1767514,42.8119393 L21.0299252,35.0655567 C20.9031654,34.6117368 21.1908473,34.1468689 21.6709164,34.0278899 C22.1545816,33.9089109 22.6427418,34.1817127 22.7686027,34.6346828 L24.9163278,42.3810654 C25.392801,44.099462 27.0379818,45.3003 28.9178033,45.3003 L65.1009941,45.3003 C65.5981443,45.3003 66,45.6810328 66,46.15015 C66,46.6192672 65.5981443,47 65.1009941,47" id="Fill-13" fill="#00BE78"></path>
                <path d="M36.0944982,33 L12.9055018,33 C12.4056648,33 12,32.552 12,32 C12,31.448 12.4056648,31 12.9055018,31 L36.0944982,31 C36.5952407,31 37,31.448 37,32 C37,32.552 36.5952407,33 36.0944982,33" id="Fill-15" fill="#00BE78"></path>
                <path d="M28.1275727,26 L7.87242733,26 C7.39084744,26 7,25.552 7,25 C7,24.448 7.39084744,24 7.87242733,24 L28.1275727,24 C28.610025,24 29,24.448 29,25 C29,25.552 28.610025,26 28.1275727,26" id="Fill-17" fill="#00BE78"></path>
                <path d="M25.0862124,19 L0.91378765,19 C0.409376867,19 0,18.552 0,18 C0,17.448 0.409376867,17 0.91378765,17 L25.0862124,17 C25.5915369,17 26,17.448 26,18 C26,18.552 25.5915369,19 25.0862124,19" id="Fill-19" fill="#00BE78"></path>
                <path d="M6,25 C6,25.5521472 5.55214724,26 5,26 C4.44785276,26 4,25.5521472 4,25 C4,24.4478528 4.44785276,24 5,24 C5.55214724,24 6,24.4478528 6,25" id="Fill-21" fill="#00BE78"></path>
            </g>
        </g>
    </g>
</svg>